<svg width="20" height="20" viewBox="0 0 20 20" fill="none" xmlns="http://www.w3.org/2000/svg">
<path d="M9.13869 10.3125C8.75145 10.3125 8.43753 10.6264 8.43753 11.0136C8.43753 11.2045 8.51539 11.3872 8.65312 11.5194L8.79439 11.655C9.04754 11.8981 9.3558 12.0498 9.67776 12.1102C9.62456 12.7383 9.35771 13.2224 8.96392 13.4924C8.52867 13.7909 7.86694 13.8761 7.00002 13.4978C6.84184 13.4288 6.65765 13.501 6.58862 13.6592C6.51959 13.8174 6.59186 14.0016 6.75004 14.0706C7.75813 14.5106 8.6589 14.4594 9.3174 14.0078C9.60681 13.8094 9.83535 13.543 10 13.23C10.1647 13.543 10.3933 13.8094 10.6827 14.0078C11.3412 14.4594 12.2419 14.5106 13.25 14.0706C13.4082 14.0016 13.4805 13.8174 13.4114 13.6592C13.3424 13.501 13.1582 13.4288 13 13.4978C12.1331 13.8761 11.4714 13.7909 11.0361 13.4924C10.6424 13.2224 10.3755 12.7383 10.3223 12.1102C10.6443 12.0498 10.9525 11.8981 11.2057 11.655L11.347 11.5194C11.4847 11.3872 11.5625 11.2045 11.5625 11.0136C11.5625 10.6264 11.2486 10.3125 10.8614 10.3125H9.13869Z" fill="#5F5B5B"/>
<path d="M8.12503 9.37497C8.12503 9.72015 7.84521 9.99997 7.50003 9.99997C7.15485 9.99997 6.87503 9.72015 6.87503 9.37497C6.87503 9.02979 7.15485 8.74997 7.50003 8.74997C7.84521 8.74997 8.12503 9.02979 8.12503 9.37497Z" fill="#5F5B5B"/>
<path d="M12.5 9.99997C12.8452 9.99997 13.125 9.72015 13.125 9.37497C13.125 9.02979 12.8452 8.74997 12.5 8.74997C12.1549 8.74997 11.875 9.02979 11.875 9.37497C11.875 9.72015 12.1549 9.99997 12.5 9.99997Z" fill="#5F5B5B"/>
<path fill-rule="evenodd" clip-rule="evenodd" d="M7.70701 4.0845C7.53256 3.77105 7.24252 3.49272 6.92162 3.25447C6.53508 2.96749 6.06844 2.71291 5.60486 2.50427C5.14039 2.29522 4.66962 2.12809 4.26992 2.01898C4.07018 1.96446 3.88427 1.92334 3.72314 1.89914C3.5688 1.87595 3.413 1.86434 3.28466 1.88407C3.16863 1.90191 3.07239 1.98327 3.03549 2.09472C2.73487 3.00263 2.77251 4.27763 2.94676 5.35601C3.03485 5.90109 3.16047 6.41253 3.30515 6.8217C3.3774 7.02604 3.45649 7.21082 3.54124 7.36377C3.58495 7.44266 3.63424 7.52064 3.69001 7.59065C3.5369 8.02445 3.44979 8.48273 3.43874 8.95883C2.65289 9.88072 2.18753 10.9888 2.18753 12.1875C2.18753 12.3699 2.19829 12.5502 2.21929 12.7279L1.52377 12.8149C1.35252 12.8363 1.23104 12.9925 1.25245 13.1637C1.27385 13.335 1.43004 13.4565 1.60129 13.435L2.3348 13.3434C2.44262 13.7603 2.60744 14.1603 2.82192 14.5388L1.74572 15.028C1.5886 15.0994 1.51913 15.2847 1.59054 15.4418C1.66196 15.5989 1.84723 15.6684 2.00435 15.597L3.16497 15.0694C3.52945 15.5685 3.98423 16.0212 4.50923 16.4149C5.92556 17.4772 7.86789 18.125 10 18.125C12.1322 18.125 14.0745 17.4772 15.4908 16.4149C16.0158 16.0212 16.4706 15.5685 16.8351 15.0694L17.9957 15.597C18.1528 15.6684 18.3381 15.5989 18.4095 15.4418C18.4809 15.2847 18.4115 15.0994 18.2543 15.028L17.1781 14.5388C17.3926 14.1603 17.5574 13.7603 17.6653 13.3434L18.3988 13.435C18.57 13.4565 18.7262 13.335 18.7476 13.1637C18.769 12.9925 18.6476 12.8363 18.4763 12.8149L17.7808 12.7279C17.8018 12.5502 17.8125 12.3699 17.8125 12.1875C17.8125 10.9888 17.3472 9.88072 16.5613 8.95883C16.5503 8.48273 16.4632 8.02445 16.3101 7.59065C16.3658 7.52064 16.4151 7.44266 16.4588 7.36377C16.5436 7.21082 16.6227 7.02604 16.6949 6.82171C16.8396 6.41253 16.9652 5.9011 17.0533 5.35601C17.2276 4.27763 17.2652 3.00264 16.9646 2.09472C16.9277 1.98328 16.8314 1.90191 16.7154 1.88408C16.5869 1.86432 16.4335 1.87594 16.2823 1.89935C16.1247 1.92373 15.9444 1.9651 15.7515 2.01983C15.3657 2.12935 14.9138 2.29697 14.4685 2.50647C14.024 2.71561 13.577 2.97072 13.2053 3.25821C12.8829 3.50769 12.5941 3.79917 12.4265 4.12616C11.6717 3.88287 10.8516 3.74997 10 3.74997C9.1984 3.74997 8.42467 3.86774 7.70701 4.0845ZM15.1505 6.73534C14.4894 5.82509 13.451 5.09779 12.1875 4.70222V6.24997C12.1875 6.42256 12.0476 6.56247 11.875 6.56247C11.7024 6.56247 11.5625 6.42256 11.5625 6.24997V4.53804C11.1626 4.45238 10.7446 4.39878 10.3125 4.38128V6.87497C10.3125 7.04756 10.1726 7.18747 10 7.18747C9.82744 7.18747 9.68753 7.04756 9.68753 6.87497V4.38128C9.2555 4.39878 8.83746 4.45238 8.43753 4.53804V6.24997C8.43753 6.42256 8.29762 6.56247 8.12503 6.56247C7.95244 6.56247 7.81253 6.42256 7.81253 6.24997V4.70222C6.77511 5.02701 5.8895 5.57543 5.23984 6.26514C4.96151 6.58599 4.7076 6.94347 4.48468 7.33105C4.21169 7.87052 4.06253 8.45592 4.06253 9.06247L4.06256 9.07589L4.06298 9.1951L3.9839 9.28431C3.23689 10.1269 2.81253 11.1249 2.81253 12.1875C2.81253 12.3432 2.82167 12.4976 2.83963 12.6504L4.02377 12.5024C4.19503 12.481 4.35121 12.6024 4.37262 12.7737C4.39403 12.945 4.27255 13.1011 4.10129 13.1225L2.96131 13.265C3.05956 13.6159 3.20502 13.9552 3.39343 14.279L5.18322 13.4655C5.34034 13.3941 5.5256 13.4635 5.59702 13.6206C5.66844 13.7778 5.59897 13.963 5.44185 14.0345L3.74728 14.8047C4.05842 15.2091 4.44071 15.5823 4.88423 15.9149C6.18237 16.8885 7.99004 17.5 10 17.5C12.01 17.5 13.8177 16.8885 15.1158 15.9149C15.5594 15.5823 15.9416 15.2091 16.2528 14.8047L14.5582 14.0345C14.4011 13.963 14.3316 13.7778 14.403 13.6206C14.4745 13.4635 14.6597 13.3941 14.8168 13.4655L16.6066 14.279C16.795 13.9552 16.9405 13.6159 17.0388 13.265L15.8988 13.1225C15.7275 13.1011 15.606 12.945 15.6274 12.7737C15.6489 12.6024 15.805 12.481 15.9763 12.5024L17.1604 12.6504C17.1784 12.4976 17.1875 12.3432 17.1875 12.1875C17.1875 11.1249 16.7632 10.1269 16.0162 9.28431L15.9371 9.19512L15.9375 9.07593L15.9375 9.06247C15.9375 8.43915 15.78 7.83818 15.4925 7.28643C15.3835 7.09467 15.2695 6.91073 15.1505 6.73534Z" fill="#5F5B5B"/>
</svg>
