<svg width="18" height="16" viewBox="0 0 18 16" fill="none" xmlns="http://www.w3.org/2000/svg">
<path fill-rule="evenodd" clip-rule="evenodd" d="M7.88816 6.5625C7.50092 6.5625 7.18701 6.87642 7.18701 7.26366C7.18701 7.45458 7.26486 7.63724 7.40259 7.76946L7.54386 7.90508C7.79575 8.14689 8.1022 8.29829 8.42241 8.35927C8.36002 8.85056 8.10243 9.2414 7.74043 9.46708C7.32529 9.72589 6.7355 9.78988 6.06937 9.47841C5.91302 9.40531 5.72702 9.47279 5.65392 9.62913C5.58082 9.78548 5.6483 9.97148 5.80464 10.0446C6.29919 10.2758 6.78761 10.3513 7.23175 10.2943L7.41672 11.4041C7.49206 11.8562 7.88317 12.1875 8.34146 12.1875H9.15755C9.61584 12.1875 10.007 11.8562 10.0823 11.4041L10.2673 10.2943C10.7114 10.3513 11.1998 10.2758 11.6944 10.0446C11.8507 9.97148 11.9182 9.78548 11.8451 9.62913C11.772 9.47279 11.586 9.40531 11.4296 9.47841C10.7635 9.78988 10.1737 9.72589 9.75858 9.46708C9.39658 9.2414 9.13899 8.85056 9.07661 8.35927C9.39682 8.29829 9.70327 8.14689 9.95515 7.90508L10.0964 7.76946C10.2342 7.63724 10.312 7.45458 10.312 7.26366C10.312 6.87642 9.99809 6.5625 9.61085 6.5625H7.88816ZM9.66218 10.1231C9.58133 10.0863 9.50314 10.0443 9.42793 9.99746C9.14829 9.82312 8.91768 9.5852 8.74951 9.30195C8.58133 9.5852 8.35072 9.82312 8.07108 9.99746C7.99587 10.0443 7.91768 10.0863 7.83683 10.1231L8.03321 11.3014C8.05833 11.4521 8.1887 11.5625 8.34146 11.5625H9.15755C9.31031 11.5625 9.44069 11.4521 9.4658 11.3014L9.66218 10.1231Z" fill="black"/>
<path d="M7.03076 5.9375C7.28964 5.9375 7.49951 5.72763 7.49951 5.46875C7.49951 5.20987 7.28964 5 7.03076 5C6.77187 5 6.56201 5.20987 6.56201 5.46875C6.56201 5.72763 6.77187 5.9375 7.03076 5.9375Z" fill="black"/>
<path d="M10.937 5.46875C10.937 5.72763 10.7271 5.9375 10.4683 5.9375C10.2094 5.9375 9.99951 5.72763 9.99951 5.46875C9.99951 5.20987 10.2094 5 10.4683 5C10.7271 5 10.937 5.20987 10.937 5.46875Z" fill="black"/>
<path fill-rule="evenodd" clip-rule="evenodd" d="M3.75573 5.04562C3.79426 4.22165 4.01017 3.44467 4.36465 2.75869C4.08006 2.04925 3.9811 1.18542 4.13274 0.383864C4.17683 0.150818 4.37596 -0.0152393 4.60805 0.0336322C5.05276 0.127277 5.67407 0.411639 6.06983 0.825715C6.84233 0.303467 7.76047 0 8.74951 0C9.73854 0 10.6567 0.303467 11.4292 0.825715C11.8249 0.411639 12.4462 0.127277 12.891 0.0336322C13.1231 -0.0152393 13.3222 0.150818 13.3663 0.383864C13.5179 1.18542 13.4189 2.04925 13.1344 2.75869C13.4916 3.45004 13.7081 4.23381 13.7442 5.06496C13.8632 5.08511 13.9821 5.11004 14.1008 5.13986C16.5985 5.76754 18.0315 8.32106 17.3149 10.8294C16.6003 13.3308 14.0128 14.8608 11.5232 14.2351C11.4043 14.2053 11.2878 14.171 11.1738 14.1325C10.5324 14.8561 9.68967 15.3125 8.74951 15.3125C7.82197 15.3125 6.98905 14.8682 6.35102 14.1614C4.28524 14.8236 1.90135 13.9132 0.704054 11.9149C-0.653371 9.64928 0.00457478 6.79482 2.2253 5.55933C2.7103 5.28951 3.22849 5.12071 3.75573 5.04562ZM8.74951 0.625C6.35195 0.625 4.37451 2.70436 4.37451 5.3125L4.37452 5.32519L4.37523 5.61458L4.08675 5.63748C3.54862 5.68019 3.01876 5.83311 2.52916 6.1055C0.646541 7.15288 0.0463082 9.60102 1.24019 11.5936C2.3323 13.4164 4.5275 14.1862 6.33938 13.5038L6.54987 13.4245L6.69187 13.5989C7.25597 14.2919 7.9796 14.6875 8.74951 14.6875C9.53028 14.6875 10.2637 14.2806 10.8311 13.5692L10.9751 13.3887L11.1899 13.4733C11.3457 13.5346 11.5078 13.5868 11.6755 13.629C13.8278 14.1699 16.0891 12.8448 16.7139 10.6577C17.3368 8.47771 16.0927 6.28486 13.9485 5.74602C13.767 5.70041 13.5849 5.66807 13.4032 5.64836L13.1231 5.61798L13.1245 5.33622L13.1245 5.3125C13.1245 2.70436 11.1471 0.625 8.74951 0.625Z" fill="black"/>
</svg>
