<svg width="20" height="20" viewBox="0 0 20 20" fill="none" xmlns="http://www.w3.org/2000/svg">
<path d="M5.72438 5.00133C5.85766 4.97103 6.0142 4.96489 6.19854 4.99562C6.36878 5.02399 6.52979 4.90899 6.55817 4.73875C6.58654 4.5685 6.47154 4.4075 6.3013 4.37912C5.74858 4.287 5.30907 4.42489 4.98517 4.67405C4.6705 4.91611 4.48367 5.24793 4.39096 5.52605C4.33638 5.68978 4.42487 5.86676 4.5886 5.92134C4.62508 5.9335 4.66222 5.93856 4.69851 5.93726C4.6912 5.98833 4.68742 6.04054 4.68742 6.09363C4.68742 6.69769 5.17711 7.18738 5.78117 7.18738C6.38523 7.18738 6.87492 6.69769 6.87492 6.09363C6.87492 5.48957 6.38523 4.99988 5.78117 4.99988C5.76212 4.99988 5.74319 5.00037 5.72438 5.00133Z" fill="#5F5B5B"/>
<path d="M15.3124 6.09363C15.3124 6.69769 14.8227 7.18738 14.2187 7.18738C13.6146 7.18738 13.1249 6.69769 13.1249 6.09363C13.1249 5.5915 13.4633 5.16841 13.9244 5.03991C13.693 4.96658 13.4422 4.95131 13.1763 4.99563C13.0061 5.024 12.845 4.90899 12.8167 4.73875C12.7883 4.56851 12.9033 4.4075 13.0735 4.37913C13.9464 4.23365 14.716 4.56922 15.2499 5.28113C15.3414 5.40314 15.3302 5.57029 15.2311 5.67899C15.2835 5.80686 15.3124 5.94687 15.3124 6.09363Z" fill="#5F5B5B"/>
<path d="M14.2961 12.2924C14.4107 12.4215 14.3989 12.619 14.2699 12.7336C13.2952 13.5986 11.5812 14.0414 9.94284 14.0616C9.11529 14.0719 8.28622 13.975 7.55281 13.7589C6.82228 13.5437 6.16594 13.2038 5.70872 12.7128C5.59111 12.5865 5.59815 12.3888 5.72446 12.2712C5.85076 12.1536 6.0485 12.1606 6.16612 12.2869C6.5214 12.6684 7.06349 12.9632 7.72945 13.1594C8.39253 13.3548 9.15798 13.4463 9.93512 13.4367C11.5061 13.4173 13.0422 12.9875 13.855 12.2662C13.9841 12.1516 14.1816 12.1634 14.2961 12.2924Z" fill="#5F5B5B"/>
<path d="M11.7804 15.5363C11.904 15.416 11.9067 15.2181 11.7864 15.0944C11.666 14.9708 11.4682 14.9681 11.3445 15.0884C10.8961 15.5247 10.3799 15.6541 9.89175 15.6196C9.39413 15.5844 8.92981 15.3778 8.62516 15.1488C8.48719 15.0452 8.29129 15.0729 8.1876 15.2109C8.08391 15.3489 8.11171 15.5448 8.24968 15.6485C8.63947 15.9414 9.21683 16.1984 9.84767 16.2431C10.488 16.2883 11.1871 16.1137 11.7804 15.5363Z" fill="#5F5B5B"/>
<path fill-rule="evenodd" clip-rule="evenodd" d="M11.726 4.06412C12.632 2.38923 14.5653 1.66681 16.0674 2.59238C17.5522 3.50728 17.9336 5.62245 17.0307 7.29146C16.9419 7.45554 16.8437 7.61022 16.7373 7.75497C18.3647 8.90643 19.0999 11.0988 18.5896 13.2562C18.0006 15.7465 15.9367 16.7238 13.7565 17.3793C12.6286 17.7184 11.1825 17.8326 9.81566 17.8095C8.44729 17.7864 7.12705 17.6251 6.24336 17.3957C4.52159 16.9486 2.84546 16.3113 1.89312 14.4264C0.72074 12.106 1.15248 9.12755 3.19831 7.71038C3.10424 7.57858 3.01689 7.43881 2.93718 7.29146C2.03431 5.62245 2.41567 3.50728 3.90043 2.59238C5.40252 1.66681 7.33582 2.38923 8.24187 4.06412C8.38524 4.32914 8.49595 4.60398 8.57517 4.88248C9.02929 4.78239 9.50069 4.72971 9.98394 4.72971C10.4672 4.72971 10.9386 4.78239 11.3927 4.88248C11.4719 4.60398 11.5826 4.32914 11.726 4.06412ZM15.7396 3.12448C14.6156 2.43188 13.0543 2.92221 12.2757 4.3615C12.1084 4.67089 11.9938 4.99554 11.9293 5.32165L11.8641 5.65079L11.5404 5.56241C11.0445 5.42702 10.5228 5.35471 9.98394 5.35471C9.44506 5.35471 8.92334 5.42702 8.42747 5.56241L8.10378 5.6508L8.0386 5.32165C7.97403 4.99554 7.85952 4.67089 7.69215 4.3615C6.91356 2.92221 5.35231 2.43188 4.2283 3.12448C3.08696 3.82776 2.70512 5.54892 3.4869 6.99408C3.60515 7.21268 3.74238 7.40997 3.89388 7.58473L4.14236 7.87136L3.81346 8.06037C3.79051 8.07356 3.76764 8.08703 3.74486 8.10078C1.86013 9.23821 1.34317 11.9519 2.45097 14.1446C3.27396 15.7735 4.71079 16.352 6.40042 16.7907C7.22243 17.0041 8.49064 17.1621 9.82621 17.1846C11.1633 17.2072 12.5367 17.0934 13.5765 16.7808C15.7316 16.1328 17.4769 15.2453 17.9814 13.1124C18.4698 11.0474 17.6813 9.02036 16.1171 8.09743L15.7892 7.90396L16.0429 7.62007C16.2067 7.4367 16.3547 7.22754 16.481 6.99408C17.2627 5.54892 16.8809 3.82776 15.7396 3.12448Z" fill="#5F5B5B"/>
</svg>
